<mxfile host="app.diagrams.net" agent="Mozilla/5.0 (X11; Linux x86_64) AppleWebKit/537.36 (KHTML, like Gecko) Chrome/129.0.0.0 Safari/537.36" version="24.8.3">
  <diagram name="Viveros" id="qzEOuTu9NKWMBjpNig4R">
    <mxGraphModel grid="1" page="1" gridSize="10" guides="1" tooltips="1" connect="1" arrows="1" fold="1" pageScale="1" pageWidth="827" pageHeight="1169" math="0" shadow="0">
      <root>
        <mxCell id="0" />
        <mxCell id="1" parent="0" />
        <mxCell id="AyrixzSQWaV738IrmU4d-55" style="edgeStyle=none;curved=1;rounded=0;orthogonalLoop=1;jettySize=auto;html=1;exitX=1;exitY=0.5;exitDx=0;exitDy=0;entryX=0;entryY=0.5;entryDx=0;entryDy=0;fontSize=12;startSize=8;endSize=8;endArrow=none;endFill=0;" edge="1" parent="1" source="WhL2kZLVGy2SMYVbGXkR-1" target="AyrixzSQWaV738IrmU4d-54">
          <mxGeometry relative="1" as="geometry">
            <mxPoint x="435" y="494.5" as="sourcePoint" />
          </mxGeometry>
        </mxCell>
        <mxCell id="AyrixzSQWaV738IrmU4d-51" style="edgeStyle=none;curved=1;rounded=0;orthogonalLoop=1;jettySize=auto;html=1;exitX=0.5;exitY=1;exitDx=0;exitDy=0;fontSize=12;startSize=8;endSize=8;endArrow=none;endFill=0;" edge="1" parent="1" source="WhL2kZLVGy2SMYVbGXkR-1" target="AyrixzSQWaV738IrmU4d-22">
          <mxGeometry relative="1" as="geometry">
            <mxPoint x="385" y="519.5" as="sourcePoint" />
          </mxGeometry>
        </mxCell>
        <mxCell id="AyrixzSQWaV738IrmU4d-56" style="rounded=0;orthogonalLoop=1;jettySize=auto;html=1;exitX=0;exitY=0.5;exitDx=0;exitDy=0;entryX=1;entryY=0.5;entryDx=0;entryDy=0;fontSize=12;startSize=8;endSize=8;endArrow=none;endFill=0;" edge="1" parent="1" source="AyrixzSQWaV738IrmU4d-11" target="AyrixzSQWaV738IrmU4d-54">
          <mxGeometry relative="1" as="geometry" />
        </mxCell>
        <mxCell id="AyrixzSQWaV738IrmU4d-113" style="edgeStyle=none;curved=1;rounded=0;orthogonalLoop=1;jettySize=auto;html=1;exitX=1;exitY=0.5;exitDx=0;exitDy=0;fontSize=12;startSize=8;endSize=8;endArrow=none;endFill=0;entryX=0.5;entryY=1;entryDx=0;entryDy=0;" edge="1" parent="1" source="AyrixzSQWaV738IrmU4d-11" target="AyrixzSQWaV738IrmU4d-112">
          <mxGeometry relative="1" as="geometry" />
        </mxCell>
        <mxCell id="AyrixzSQWaV738IrmU4d-11" value="Vivero" style="rounded=0;whiteSpace=wrap;html=1;aspect=fixed;fontSize=14;fillColor=#e1d5e7;strokeColor=#9673a6;" vertex="1" parent="1">
          <mxGeometry x="658" y="469.5" width="100" height="50" as="geometry" />
        </mxCell>
        <mxCell id="Z_fFSw_3jqZQKLgusjVg-11" style="rounded=0;orthogonalLoop=1;jettySize=auto;html=1;exitX=0.5;exitY=1;exitDx=0;exitDy=0;entryX=0.5;entryY=0;entryDx=0;entryDy=0;endArrow=none;endFill=0;" edge="1" parent="1" source="AyrixzSQWaV738IrmU4d-12" target="Z_fFSw_3jqZQKLgusjVg-10">
          <mxGeometry relative="1" as="geometry" />
        </mxCell>
        <mxCell id="Z_fFSw_3jqZQKLgusjVg-43" style="rounded=0;orthogonalLoop=1;jettySize=auto;html=1;exitX=0.5;exitY=1;exitDx=0;exitDy=0;entryX=0.5;entryY=0;entryDx=0;entryDy=0;endArrow=none;endFill=0;" edge="1" parent="1" source="AyrixzSQWaV738IrmU4d-12" target="Z_fFSw_3jqZQKLgusjVg-42">
          <mxGeometry relative="1" as="geometry" />
        </mxCell>
        <mxCell id="AyrixzSQWaV738IrmU4d-12" value="Producto" style="rounded=0;whiteSpace=wrap;html=1;aspect=fixed;fontSize=14;fillColor=#e1d5e7;strokeColor=#9673a6;" vertex="1" parent="1">
          <mxGeometry x="334.5" y="665" width="100" height="50" as="geometry" />
        </mxCell>
        <mxCell id="AyrixzSQWaV738IrmU4d-47" style="edgeStyle=none;curved=1;rounded=0;orthogonalLoop=1;jettySize=auto;html=1;exitX=0.5;exitY=1;exitDx=0;exitDy=0;fontSize=12;startSize=8;endSize=8;endArrow=none;endFill=0;entryX=0.5;entryY=0;entryDx=0;entryDy=0;" edge="1" parent="1" source="AyrixzSQWaV738IrmU4d-13">
          <mxGeometry relative="1" as="geometry">
            <mxPoint x="385" y="469.5" as="targetPoint" />
          </mxGeometry>
        </mxCell>
        <mxCell id="AyrixzSQWaV738IrmU4d-13" value="Georeferencia" style="ellipse;whiteSpace=wrap;html=1;align=center;fillColor=#e1d5e7;strokeColor=#9673a6;aspect=fixed;fontSize=14;" vertex="1" parent="1">
          <mxGeometry x="408.5" y="287" width="90" height="90" as="geometry" />
        </mxCell>
        <mxCell id="AyrixzSQWaV738IrmU4d-46" style="edgeStyle=none;curved=1;rounded=0;orthogonalLoop=1;jettySize=auto;html=1;exitX=0.5;exitY=1;exitDx=0;exitDy=0;entryX=0.5;entryY=0;entryDx=0;entryDy=0;fontSize=12;startSize=8;endSize=8;endArrow=none;endFill=0;" edge="1" parent="1" source="AyrixzSQWaV738IrmU4d-15" target="AyrixzSQWaV738IrmU4d-11">
          <mxGeometry relative="1" as="geometry" />
        </mxCell>
        <mxCell id="AyrixzSQWaV738IrmU4d-15" value="Georeferencia" style="ellipse;whiteSpace=wrap;html=1;align=center;fillColor=#e1d5e7;strokeColor=#9673a6;aspect=fixed;fontSize=14;" vertex="1" parent="1">
          <mxGeometry x="663" y="287" width="90" height="90" as="geometry" />
        </mxCell>
        <mxCell id="AyrixzSQWaV738IrmU4d-43" style="edgeStyle=none;curved=1;rounded=0;orthogonalLoop=1;jettySize=auto;html=1;exitX=0.5;exitY=1;exitDx=0;exitDy=0;fontSize=12;startSize=8;endSize=8;endArrow=none;endFill=0;entryX=0.5;entryY=0;entryDx=0;entryDy=0;" edge="1" parent="1" source="AyrixzSQWaV738IrmU4d-16" target="AyrixzSQWaV738IrmU4d-13">
          <mxGeometry relative="1" as="geometry" />
        </mxCell>
        <mxCell id="AyrixzSQWaV738IrmU4d-16" value="Longitud" style="ellipse;whiteSpace=wrap;html=1;align=center;fillColor=#e1d5e7;strokeColor=#9673a6;aspect=fixed;fontSize=14;" vertex="1" parent="1">
          <mxGeometry x="374.5" y="172.5" width="65" height="65" as="geometry" />
        </mxCell>
        <mxCell id="AyrixzSQWaV738IrmU4d-42" style="edgeStyle=none;curved=1;rounded=0;orthogonalLoop=1;jettySize=auto;html=1;exitX=0.5;exitY=1;exitDx=0;exitDy=0;entryX=0.5;entryY=0;entryDx=0;entryDy=0;fontSize=12;startSize=8;endSize=8;endArrow=none;endFill=0;" edge="1" parent="1" source="AyrixzSQWaV738IrmU4d-17" target="AyrixzSQWaV738IrmU4d-13">
          <mxGeometry relative="1" as="geometry" />
        </mxCell>
        <mxCell id="AyrixzSQWaV738IrmU4d-17" value="Latitud" style="ellipse;whiteSpace=wrap;html=1;align=center;fillColor=#e1d5e7;strokeColor=#9673a6;fontSize=14;aspect=fixed;" vertex="1" parent="1">
          <mxGeometry x="467.5" y="172.5" width="65" height="65" as="geometry" />
        </mxCell>
        <mxCell id="AyrixzSQWaV738IrmU4d-44" style="edgeStyle=none;curved=1;rounded=0;orthogonalLoop=1;jettySize=auto;html=1;exitX=0.5;exitY=1;exitDx=0;exitDy=0;entryX=0.5;entryY=0;entryDx=0;entryDy=0;fontSize=12;startSize=8;endSize=8;endArrow=none;endFill=0;" edge="1" parent="1" source="AyrixzSQWaV738IrmU4d-18" target="AyrixzSQWaV738IrmU4d-15">
          <mxGeometry relative="1" as="geometry" />
        </mxCell>
        <mxCell id="AyrixzSQWaV738IrmU4d-18" value="Longitud" style="ellipse;whiteSpace=wrap;html=1;align=center;fillColor=#e1d5e7;strokeColor=#9673a6;aspect=fixed;fontSize=14;" vertex="1" parent="1">
          <mxGeometry x="631.5" y="180" width="65" height="65" as="geometry" />
        </mxCell>
        <mxCell id="AyrixzSQWaV738IrmU4d-45" style="edgeStyle=none;curved=1;rounded=0;orthogonalLoop=1;jettySize=auto;html=1;exitX=0.5;exitY=1;exitDx=0;exitDy=0;entryX=0.5;entryY=0;entryDx=0;entryDy=0;fontSize=12;startSize=8;endSize=8;endArrow=none;endFill=0;" edge="1" parent="1" source="AyrixzSQWaV738IrmU4d-19" target="AyrixzSQWaV738IrmU4d-15">
          <mxGeometry relative="1" as="geometry" />
        </mxCell>
        <mxCell id="AyrixzSQWaV738IrmU4d-19" value="Latitud" style="ellipse;whiteSpace=wrap;html=1;align=center;fillColor=#e1d5e7;strokeColor=#9673a6;aspect=fixed;fontSize=14;" vertex="1" parent="1">
          <mxGeometry x="723.5" y="180" width="65" height="65" as="geometry" />
        </mxCell>
        <mxCell id="AyrixzSQWaV738IrmU4d-53" style="edgeStyle=none;curved=1;rounded=0;orthogonalLoop=1;jettySize=auto;html=1;exitX=0.5;exitY=0;exitDx=0;exitDy=0;entryX=0.5;entryY=1;entryDx=0;entryDy=0;fontSize=12;startSize=8;endSize=8;endArrow=none;endFill=0;" edge="1" parent="1" source="AyrixzSQWaV738IrmU4d-20" target="AyrixzSQWaV738IrmU4d-12">
          <mxGeometry relative="1" as="geometry" />
        </mxCell>
        <mxCell id="AyrixzSQWaV738IrmU4d-20" value="Disponibilidad" style="ellipse;whiteSpace=wrap;html=1;align=center;fillColor=#e1d5e7;strokeColor=#9673a6;aspect=fixed;fontSize=14;" vertex="1" parent="1">
          <mxGeometry x="405.75" y="750" width="90" height="90" as="geometry" />
        </mxCell>
        <mxCell id="AyrixzSQWaV738IrmU4d-22" value="Se asigna" style="rhombus;whiteSpace=wrap;html=1;fillColor=#fff2cc;strokeColor=#d6b656;fontSize=14;aspect=fixed;" vertex="1" parent="1">
          <mxGeometry x="345" y="554" width="80" height="80" as="geometry" />
        </mxCell>
        <mxCell id="AyrixzSQWaV738IrmU4d-37" style="edgeStyle=none;curved=1;rounded=0;orthogonalLoop=1;jettySize=auto;html=1;entryX=0.5;entryY=0;entryDx=0;entryDy=0;fontSize=12;startSize=8;endSize=8;endArrow=none;endFill=0;exitX=0.5;exitY=1;exitDx=0;exitDy=0;" edge="1" parent="1" source="AyrixzSQWaV738IrmU4d-26" target="AyrixzSQWaV738IrmU4d-96">
          <mxGeometry relative="1" as="geometry">
            <mxPoint x="179" y="322" as="sourcePoint" />
          </mxGeometry>
        </mxCell>
        <mxCell id="AyrixzSQWaV738IrmU4d-26" value="Época&amp;nbsp;&lt;div&gt;del año&lt;/div&gt;" style="ellipse;whiteSpace=wrap;html=1;align=center;fillColor=#e1d5e7;strokeColor=#9673a6;aspect=fixed;fontSize=14;" vertex="1" parent="1">
          <mxGeometry x="120" y="299.5" width="65" height="65" as="geometry" />
        </mxCell>
        <mxCell id="AyrixzSQWaV738IrmU4d-52" style="rounded=0;orthogonalLoop=1;jettySize=auto;html=1;exitX=0.5;exitY=1;exitDx=0;exitDy=0;entryX=0.5;entryY=0;entryDx=0;entryDy=0;fontSize=12;startSize=8;endSize=8;endArrow=none;endFill=0;" edge="1" parent="1" source="AyrixzSQWaV738IrmU4d-22" target="AyrixzSQWaV738IrmU4d-12">
          <mxGeometry relative="1" as="geometry">
            <mxPoint x="387" y="639" as="sourcePoint" />
          </mxGeometry>
        </mxCell>
        <mxCell id="AyrixzSQWaV738IrmU4d-54" value="Se divide" style="rhombus;whiteSpace=wrap;html=1;fillColor=#fff2cc;strokeColor=#d6b656;fontSize=14;aspect=fixed;" vertex="1" parent="1">
          <mxGeometry x="498.5" y="453.5" width="80" height="80" as="geometry" />
        </mxCell>
        <mxCell id="AyrixzSQWaV738IrmU4d-107" style="edgeStyle=none;curved=1;rounded=0;orthogonalLoop=1;jettySize=auto;html=1;exitX=0;exitY=0.5;exitDx=0;exitDy=0;entryX=1;entryY=0.5;entryDx=0;entryDy=0;fontSize=12;startSize=8;endSize=8;endArrow=none;endFill=0;" edge="1" parent="1" source="5xwBZp21FtiyCXYwIC1_-6" target="AyrixzSQWaV738IrmU4d-65">
          <mxGeometry relative="1" as="geometry" />
        </mxCell>
        <mxCell id="Z_fFSw_3jqZQKLgusjVg-7" style="rounded=0;orthogonalLoop=1;jettySize=auto;html=1;entryX=0.5;entryY=0;entryDx=0;entryDy=0;endArrow=none;endFill=0;exitX=0.5;exitY=1;exitDx=0;exitDy=0;" edge="1" parent="1" source="AyrixzSQWaV738IrmU4d-57" target="Z_fFSw_3jqZQKLgusjVg-6">
          <mxGeometry relative="1" as="geometry" />
        </mxCell>
        <mxCell id="Z_fFSw_3jqZQKLgusjVg-9" style="rounded=0;orthogonalLoop=1;jettySize=auto;html=1;entryX=0.5;entryY=0;entryDx=0;entryDy=0;endArrow=none;endFill=0;exitX=0.5;exitY=1;exitDx=0;exitDy=0;" edge="1" parent="1" source="AyrixzSQWaV738IrmU4d-57" target="Z_fFSw_3jqZQKLgusjVg-8">
          <mxGeometry relative="1" as="geometry" />
        </mxCell>
        <mxCell id="AyrixzSQWaV738IrmU4d-57" value="Cliente Fidelizado" style="rounded=0;whiteSpace=wrap;html=1;aspect=fixed;fontSize=14;fillColor=#e1d5e7;strokeColor=#9673a6;" vertex="1" parent="1">
          <mxGeometry x="1122" y="822" width="100" height="50" as="geometry" />
        </mxCell>
        <mxCell id="AyrixzSQWaV738IrmU4d-76" style="edgeStyle=none;curved=1;rounded=0;orthogonalLoop=1;jettySize=auto;html=1;exitX=0.5;exitY=0;exitDx=0;exitDy=0;entryX=0.5;entryY=1;entryDx=0;entryDy=0;fontSize=12;startSize=8;endSize=8;endArrow=none;endFill=0;" edge="1" parent="1" source="AyrixzSQWaV738IrmU4d-60" target="AyrixzSQWaV738IrmU4d-57">
          <mxGeometry relative="1" as="geometry">
            <mxPoint x="761" y="732" as="targetPoint" />
          </mxGeometry>
        </mxCell>
        <mxCell id="AyrixzSQWaV738IrmU4d-60" value="Bonificaciones" style="ellipse;whiteSpace=wrap;html=1;align=center;fillColor=#e1d5e7;strokeColor=#9673a6;aspect=fixed;fontSize=14;dashed=1;dashPattern=12 12;" vertex="1" parent="1">
          <mxGeometry x="1222" y="899" width="90" height="90" as="geometry" />
        </mxCell>
        <mxCell id="AyrixzSQWaV738IrmU4d-67" style="edgeStyle=none;curved=1;rounded=0;orthogonalLoop=1;jettySize=auto;html=1;exitX=0;exitY=0.5;exitDx=0;exitDy=0;fontSize=12;startSize=8;endSize=8;endArrow=none;endFill=0;entryX=1;entryY=0.5;entryDx=0;entryDy=0;" edge="1" parent="1" source="AyrixzSQWaV738IrmU4d-65" target="AyrixzSQWaV738IrmU4d-12">
          <mxGeometry relative="1" as="geometry">
            <mxPoint x="560" y="690" as="sourcePoint" />
          </mxGeometry>
        </mxCell>
        <mxCell id="AyrixzSQWaV738IrmU4d-65" value="Forma&lt;div&gt;parte&lt;/div&gt;&lt;div&gt;de&lt;/div&gt;" style="rhombus;whiteSpace=wrap;html=1;fillColor=#fff2cc;strokeColor=#d6b656;fontSize=14;aspect=fixed;" vertex="1" parent="1">
          <mxGeometry x="665.5" y="647.5" width="85" height="85" as="geometry" />
        </mxCell>
        <mxCell id="AyrixzSQWaV738IrmU4d-92" style="edgeStyle=none;curved=1;rounded=0;orthogonalLoop=1;jettySize=auto;html=1;exitX=1;exitY=0.5;exitDx=0;exitDy=0;entryX=0;entryY=0.5;entryDx=0;entryDy=0;fontSize=12;startSize=8;endSize=8;endArrow=none;endFill=0;" edge="1" parent="1" source="AyrixzSQWaV738IrmU4d-87" target="AyrixzSQWaV738IrmU4d-96">
          <mxGeometry relative="1" as="geometry">
            <mxPoint x="25.000000000010914" y="494" as="targetPoint" />
          </mxGeometry>
        </mxCell>
        <mxCell id="Z_fFSw_3jqZQKLgusjVg-14" style="rounded=0;orthogonalLoop=1;jettySize=auto;html=1;exitX=0.5;exitY=0;exitDx=0;exitDy=0;entryX=0.5;entryY=1;entryDx=0;entryDy=0;endArrow=none;endFill=0;" edge="1" parent="1" source="AyrixzSQWaV738IrmU4d-87" target="Z_fFSw_3jqZQKLgusjVg-13">
          <mxGeometry relative="1" as="geometry" />
        </mxCell>
        <mxCell id="5xwBZp21FtiyCXYwIC1_-34" style="rounded=0;orthogonalLoop=1;jettySize=auto;html=1;exitX=0;exitY=0.5;exitDx=0;exitDy=0;entryX=1;entryY=0.5;entryDx=0;entryDy=0;endArrow=none;endFill=0;" edge="1" parent="1" source="AyrixzSQWaV738IrmU4d-87" target="5xwBZp21FtiyCXYwIC1_-27">
          <mxGeometry relative="1" as="geometry" />
        </mxCell>
        <mxCell id="5xwBZp21FtiyCXYwIC1_-36" style="rounded=0;orthogonalLoop=1;jettySize=auto;html=1;exitX=0.5;exitY=1;exitDx=0;exitDy=0;endArrow=none;endFill=0;" edge="1" parent="1" source="AyrixzSQWaV738IrmU4d-87" target="5xwBZp21FtiyCXYwIC1_-35">
          <mxGeometry relative="1" as="geometry" />
        </mxCell>
        <mxCell id="AyrixzSQWaV738IrmU4d-87" value="Empleado" style="rounded=0;whiteSpace=wrap;html=1;aspect=fixed;fontSize=14;fillColor=#e1d5e7;strokeColor=#9673a6;" vertex="1" parent="1">
          <mxGeometry x="-126" y="468.5" width="100" height="50" as="geometry" />
        </mxCell>
        <mxCell id="AyrixzSQWaV738IrmU4d-102" style="edgeStyle=none;curved=1;rounded=0;orthogonalLoop=1;jettySize=auto;html=1;exitX=1;exitY=0.5;exitDx=0;exitDy=0;fontSize=12;startSize=8;endSize=8;endArrow=none;endFill=0;entryX=0;entryY=0.5;entryDx=0;entryDy=0;" edge="1" parent="1" source="AyrixzSQWaV738IrmU4d-96" target="WhL2kZLVGy2SMYVbGXkR-1">
          <mxGeometry relative="1" as="geometry">
            <mxPoint x="335" y="494.5" as="targetPoint" />
          </mxGeometry>
        </mxCell>
        <mxCell id="AyrixzSQWaV738IrmU4d-96" value="Destinado" style="rhombus;whiteSpace=wrap;html=1;fillColor=#fff2cc;strokeColor=#d6b656;fontSize=14;aspect=fixed;" vertex="1" parent="1">
          <mxGeometry x="112.5" y="453.5" width="80" height="80" as="geometry" />
        </mxCell>
        <mxCell id="AyrixzSQWaV738IrmU4d-111" style="edgeStyle=none;curved=1;rounded=0;orthogonalLoop=1;jettySize=auto;html=1;exitX=0.5;exitY=1;exitDx=0;exitDy=0;entryX=0.5;entryY=0;entryDx=0;entryDy=0;fontSize=12;startSize=8;endSize=8;endArrow=none;endFill=0;" edge="1" parent="1" source="AyrixzSQWaV738IrmU4d-110" target="AyrixzSQWaV738IrmU4d-87">
          <mxGeometry relative="1" as="geometry" />
        </mxCell>
        <mxCell id="AyrixzSQWaV738IrmU4d-110" value="Productividad" style="ellipse;whiteSpace=wrap;html=1;align=center;fillColor=#e1d5e7;strokeColor=#9673a6;aspect=fixed;fontSize=14;dashed=1;dashPattern=12 12;" vertex="1" parent="1">
          <mxGeometry x="-26" y="329" width="90" height="90" as="geometry" />
        </mxCell>
        <mxCell id="AyrixzSQWaV738IrmU4d-112" value="Productividad" style="ellipse;whiteSpace=wrap;html=1;align=center;fillColor=#e1d5e7;strokeColor=#9673a6;aspect=fixed;fontSize=14;dashed=1;dashPattern=12 12;" vertex="1" parent="1">
          <mxGeometry x="770" y="287" width="90" height="90" as="geometry" />
        </mxCell>
        <mxCell id="Z_fFSw_3jqZQKLgusjVg-2" value="Contiene" style="text;html=1;align=center;verticalAlign=middle;whiteSpace=wrap;rounded=0;fontSize=14;aspect=fixed;" vertex="1" parent="1">
          <mxGeometry x="524.5" y="667" width="60" height="30" as="geometry" />
        </mxCell>
        <mxCell id="Z_fFSw_3jqZQKLgusjVg-3" value="Forma parte de" style="text;html=1;align=center;verticalAlign=middle;whiteSpace=wrap;rounded=0;fontSize=14;aspect=fixed;" vertex="1" parent="1">
          <mxGeometry x="760" y="650" width="110" height="55" as="geometry" />
        </mxCell>
        <mxCell id="Z_fFSw_3jqZQKLgusjVg-5" value="&lt;h1 style=&quot;margin-top: 0px; line-height: 100%;&quot;&gt;&lt;font style=&quot;font-size: 20px;&quot;&gt;Restricción semántica&lt;/font&gt;&lt;/h1&gt;&lt;p style=&quot;line-height: 20%;&quot;&gt;&lt;font face=&quot;Montserrat, sans-serif&quot;&gt;&lt;span style=&quot;font-size: 14px; white-space-collapse: preserve;&quot;&gt;Un empleado nunca va a tener &lt;/span&gt;&lt;/font&gt;&lt;/p&gt;&lt;p style=&quot;line-height: 20%;&quot;&gt;&lt;font face=&quot;Montserrat, sans-serif&quot;&gt;&lt;span style=&quot;font-size: 14px; white-space-collapse: preserve;&quot;&gt;dos destinos en la misma época&lt;/span&gt;&lt;/font&gt;&lt;br&gt;&lt;/p&gt;" style="text;html=1;whiteSpace=wrap;overflow=hidden;rounded=0;strokeColor=default;verticalAlign=middle;spacingRight=3;spacingLeft=3;align=center;" vertex="1" parent="1">
          <mxGeometry x="37.5" y="217" width="230" height="70" as="geometry" />
        </mxCell>
        <mxCell id="Z_fFSw_3jqZQKLgusjVg-6" value="&lt;font style=&quot;font-size: 14px;&quot;&gt;DNI&lt;/font&gt;" style="ellipse;whiteSpace=wrap;html=1;align=center;fillColor=#0050ef;strokeColor=#001DBC;fontColor=#ffffff;aspect=fixed;fontSize=14;" vertex="1" parent="1">
          <mxGeometry x="1056" y="914" width="60" height="60" as="geometry" />
        </mxCell>
        <mxCell id="Z_fFSw_3jqZQKLgusjVg-8" value="&lt;font style=&quot;font-size: 14px;&quot;&gt;Nombre&lt;/font&gt;" style="ellipse;whiteSpace=wrap;html=1;align=center;fillColor=#e1d5e7;strokeColor=#9673a6;aspect=fixed;fontSize=14;" vertex="1" parent="1">
          <mxGeometry x="1140" y="914" width="60" height="60" as="geometry" />
        </mxCell>
        <mxCell id="Z_fFSw_3jqZQKLgusjVg-10" value="&lt;font style=&quot;font-size: 14px;&quot;&gt;Código&lt;/font&gt;" style="ellipse;whiteSpace=wrap;html=1;align=center;fillColor=#0050ef;strokeColor=#001DBC;fontColor=#ffffff;aspect=fixed;fontSize=14;" vertex="1" parent="1">
          <mxGeometry x="221.25" y="770" width="50" height="50" as="geometry" />
        </mxCell>
        <mxCell id="Z_fFSw_3jqZQKLgusjVg-15" style="rounded=0;orthogonalLoop=1;jettySize=auto;html=1;entryX=0.5;entryY=0;entryDx=0;entryDy=0;endArrow=none;endFill=0;" edge="1" parent="1" source="Z_fFSw_3jqZQKLgusjVg-12" target="AyrixzSQWaV738IrmU4d-87">
          <mxGeometry relative="1" as="geometry" />
        </mxCell>
        <mxCell id="Z_fFSw_3jqZQKLgusjVg-12" value="&lt;font style=&quot;font-size: 14px;&quot;&gt;DNI&lt;/font&gt;" style="ellipse;whiteSpace=wrap;html=1;align=center;fillColor=#0050ef;strokeColor=#001DBC;fontColor=#ffffff;aspect=fixed;fontSize=14;" vertex="1" parent="1">
          <mxGeometry x="-186" y="344" width="60" height="60" as="geometry" />
        </mxCell>
        <mxCell id="Z_fFSw_3jqZQKLgusjVg-13" value="&lt;font style=&quot;font-size: 14px;&quot;&gt;Nombre&lt;/font&gt;" style="ellipse;whiteSpace=wrap;html=1;align=center;fillColor=#e1d5e7;strokeColor=#9673a6;aspect=fixed;fontSize=14;" vertex="1" parent="1">
          <mxGeometry x="-104.5" y="344" width="60" height="60" as="geometry" />
        </mxCell>
        <mxCell id="Z_fFSw_3jqZQKLgusjVg-18" value="&lt;h1 style=&quot;margin-top: 0px; line-height: 100%;&quot;&gt;&lt;font style=&quot;font-size: 20px;&quot;&gt;Restricción semántica&lt;/font&gt;&lt;/h1&gt;&lt;p style=&quot;line-height: 100%;&quot;&gt;&lt;font face=&quot;Montserrat, sans-serif&quot;&gt;&lt;span style=&quot;font-size: 14px; white-space-collapse: preserve;&quot;&gt;La zona en la que trabaja un empleado debe estar en el vivero en el que trabaja.&lt;/span&gt;&lt;/font&gt;&lt;/p&gt;" style="text;html=1;whiteSpace=wrap;overflow=hidden;rounded=0;strokeColor=default;verticalAlign=middle;spacingRight=3;spacingLeft=3;align=center;" vertex="1" parent="1">
          <mxGeometry x="90" y="549" width="230" height="85" as="geometry" />
        </mxCell>
        <mxCell id="Z_fFSw_3jqZQKLgusjVg-20" style="rounded=0;orthogonalLoop=1;jettySize=auto;html=1;exitX=0.5;exitY=1;exitDx=0;exitDy=0;entryX=1;entryY=0.5;entryDx=0;entryDy=0;endArrow=none;endFill=0;" edge="1" parent="1" source="Z_fFSw_3jqZQKLgusjVg-19" target="AyrixzSQWaV738IrmU4d-11">
          <mxGeometry relative="1" as="geometry" />
        </mxCell>
        <mxCell id="Z_fFSw_3jqZQKLgusjVg-19" value="&lt;font style=&quot;font-size: 14px;&quot;&gt;Código&lt;/font&gt;" style="ellipse;whiteSpace=wrap;html=1;align=center;fillColor=#0050ef;strokeColor=#001DBC;fontColor=#ffffff;aspect=fixed;fontSize=14;" vertex="1" parent="1">
          <mxGeometry x="960" y="304.5" width="50" height="50" as="geometry" />
        </mxCell>
        <mxCell id="Z_fFSw_3jqZQKLgusjVg-22" style="rounded=0;orthogonalLoop=1;jettySize=auto;html=1;exitX=0.5;exitY=1;exitDx=0;exitDy=0;entryX=0.5;entryY=0;entryDx=0;entryDy=0;endArrow=none;endFill=0;" edge="1" parent="1" source="Z_fFSw_3jqZQKLgusjVg-21">
          <mxGeometry relative="1" as="geometry">
            <mxPoint x="385" y="469.5" as="targetPoint" />
          </mxGeometry>
        </mxCell>
        <mxCell id="Z_fFSw_3jqZQKLgusjVg-21" value="&lt;font style=&quot;font-size: 14px;&quot;&gt;Código&lt;/font&gt;" style="ellipse;whiteSpace=wrap;html=1;align=center;fillColor=#0050ef;strokeColor=#001DBC;fontColor=#ffffff;aspect=fixed;fontSize=14;" vertex="1" parent="1">
          <mxGeometry x="267.5" y="305.75" width="52.5" height="52.5" as="geometry" />
        </mxCell>
        <mxCell id="Z_fFSw_3jqZQKLgusjVg-26" value="1:N" style="text;html=1;align=center;verticalAlign=middle;whiteSpace=wrap;rounded=0;fontSize=14;aspect=fixed;" vertex="1" parent="1">
          <mxGeometry x="369" y="644" width="60" height="30" as="geometry" />
        </mxCell>
        <mxCell id="Z_fFSw_3jqZQKLgusjVg-27" value="0:N" style="text;html=1;align=center;verticalAlign=middle;whiteSpace=wrap;rounded=0;fontSize=14;aspect=fixed;" vertex="1" parent="1">
          <mxGeometry x="369" y="515" width="60" height="30" as="geometry" />
        </mxCell>
        <mxCell id="Z_fFSw_3jqZQKLgusjVg-30" value="1:1" style="text;html=1;align=center;verticalAlign=middle;whiteSpace=wrap;rounded=0;fontSize=14;aspect=fixed;" vertex="1" parent="1">
          <mxGeometry x="618" y="472" width="60" height="30" as="geometry" />
        </mxCell>
        <mxCell id="Z_fFSw_3jqZQKLgusjVg-34" value="1:N" style="text;html=1;align=center;verticalAlign=middle;whiteSpace=wrap;rounded=0;fontSize=14;aspect=fixed;" vertex="1" parent="1">
          <mxGeometry x="417" y="471.5" width="60" height="30" as="geometry" />
        </mxCell>
        <mxCell id="Z_fFSw_3jqZQKLgusjVg-40" value="1:N" style="text;html=1;align=center;verticalAlign=middle;whiteSpace=wrap;rounded=0;fontSize=14;aspect=fixed;" vertex="1" parent="1">
          <mxGeometry x="290" y="472" width="60" height="30" as="geometry" />
        </mxCell>
        <mxCell id="Z_fFSw_3jqZQKLgusjVg-42" value="&lt;font style=&quot;font-size: 14px;&quot;&gt;Stock&lt;/font&gt;" style="ellipse;whiteSpace=wrap;html=1;align=center;fillColor=#e1d5e7;strokeColor=#9673a6;aspect=fixed;fontSize=14;" vertex="1" parent="1">
          <mxGeometry x="281.25" y="770" width="50" height="50" as="geometry" />
        </mxCell>
        <mxCell id="Z_fFSw_3jqZQKLgusjVg-45" style="rounded=0;orthogonalLoop=1;jettySize=auto;html=1;exitX=0.5;exitY=0;exitDx=0;exitDy=0;entryX=0.5;entryY=1;entryDx=0;entryDy=0;endArrow=none;endFill=0;" edge="1" parent="1" source="Z_fFSw_3jqZQKLgusjVg-44" target="AyrixzSQWaV738IrmU4d-12">
          <mxGeometry relative="1" as="geometry" />
        </mxCell>
        <mxCell id="Z_fFSw_3jqZQKLgusjVg-44" value="&lt;font style=&quot;font-size: 14px;&quot;&gt;Precio&lt;/font&gt;" style="ellipse;whiteSpace=wrap;html=1;align=center;fillColor=#e1d5e7;strokeColor=#9673a6;aspect=fixed;fontSize=14;" vertex="1" parent="1">
          <mxGeometry x="345.25" y="770" width="50" height="50" as="geometry" />
        </mxCell>
        <mxCell id="Z_fFSw_3jqZQKLgusjVg-46" value="1:1" style="text;html=1;align=center;verticalAlign=middle;whiteSpace=wrap;rounded=0;fontSize=14;aspect=fixed;" vertex="1" parent="1">
          <mxGeometry x="-92" y="515" width="60" height="30" as="geometry" />
        </mxCell>
        <mxCell id="Z_fFSw_3jqZQKLgusjVg-50" value="1:1" style="text;html=1;align=center;verticalAlign=middle;whiteSpace=wrap;rounded=0;fontSize=14;aspect=fixed;" vertex="1" parent="1">
          <mxGeometry x="-44" y="471" width="60" height="30" as="geometry" />
        </mxCell>
        <mxCell id="Z_fFSw_3jqZQKLgusjVg-52" value="1:N" style="text;html=1;align=center;verticalAlign=middle;whiteSpace=wrap;rounded=0;fontSize=14;aspect=fixed;" vertex="1" parent="1">
          <mxGeometry x="868" y="663.5" width="60" height="30" as="geometry" />
        </mxCell>
        <mxCell id="Z_fFSw_3jqZQKLgusjVg-56" value="1:N" style="text;html=1;align=center;verticalAlign=middle;whiteSpace=wrap;rounded=0;fontSize=14;aspect=fixed;" vertex="1" parent="1">
          <mxGeometry x="1001" y="663.5" width="60" height="30" as="geometry" />
        </mxCell>
        <mxCell id="Z_fFSw_3jqZQKLgusjVg-68" style="rounded=0;orthogonalLoop=1;jettySize=auto;html=1;exitX=0.5;exitY=1;exitDx=0;exitDy=0;entryX=0.5;entryY=0;entryDx=0;entryDy=0;endArrow=none;endFill=0;" edge="1" parent="1" source="Z_fFSw_3jqZQKLgusjVg-67">
          <mxGeometry relative="1" as="geometry">
            <mxPoint x="385" y="469.5" as="targetPoint" />
          </mxGeometry>
        </mxCell>
        <mxCell id="Z_fFSw_3jqZQKLgusjVg-67" value="Productividad" style="ellipse;whiteSpace=wrap;html=1;align=center;fillColor=#e1d5e7;strokeColor=#9673a6;aspect=fixed;fontSize=14;dashed=1;dashPattern=12 12;" vertex="1" parent="1">
          <mxGeometry x="510" y="287" width="90" height="90" as="geometry" />
        </mxCell>
        <mxCell id="zZc5tvdtqpfXuyB3mYr--4" style="rounded=0;orthogonalLoop=1;jettySize=auto;html=1;entryX=0.5;entryY=0;entryDx=0;entryDy=0;endArrow=none;endFill=0;" edge="1" parent="1" source="zZc5tvdtqpfXuyB3mYr--3" target="5xwBZp21FtiyCXYwIC1_-6">
          <mxGeometry relative="1" as="geometry">
            <mxPoint x="964" y="650" as="targetPoint" />
          </mxGeometry>
        </mxCell>
        <mxCell id="zZc5tvdtqpfXuyB3mYr--3" value="&lt;font style=&quot;font-size: 14px;&quot;&gt;Fecha&lt;/font&gt;" style="ellipse;whiteSpace=wrap;html=1;align=center;fillColor=#e1d5e7;strokeColor=#9673a6;aspect=fixed;fontSize=14;" vertex="1" parent="1">
          <mxGeometry x="939" y="583" width="50" height="50" as="geometry" />
        </mxCell>
        <mxCell id="zZc5tvdtqpfXuyB3mYr--7" style="rounded=0;orthogonalLoop=1;jettySize=auto;html=1;endArrow=none;endFill=0;entryX=0.5;entryY=1;entryDx=0;entryDy=0;exitX=0.5;exitY=0;exitDx=0;exitDy=0;" edge="1" parent="1" source="5xwBZp21FtiyCXYwIC1_-6" target="zZc5tvdtqpfXuyB3mYr--9">
          <mxGeometry relative="1" as="geometry">
            <mxPoint x="964" y="650" as="sourcePoint" />
            <mxPoint x="850.5" y="622.5" as="targetPoint" />
          </mxGeometry>
        </mxCell>
        <mxCell id="zZc5tvdtqpfXuyB3mYr--9" value="Importe" style="ellipse;whiteSpace=wrap;html=1;align=center;fillColor=#e1d5e7;strokeColor=#9673a6;aspect=fixed;fontSize=14;dashed=1;dashPattern=12 12;" vertex="1" parent="1">
          <mxGeometry x="866" y="578" width="55" height="55" as="geometry" />
        </mxCell>
        <mxCell id="5xwBZp21FtiyCXYwIC1_-16" value="" style="rounded=0;orthogonalLoop=1;jettySize=auto;html=1;endArrow=none;endFill=0;" edge="1" parent="1" source="5xwBZp21FtiyCXYwIC1_-6" target="5xwBZp21FtiyCXYwIC1_-15">
          <mxGeometry relative="1" as="geometry" />
        </mxCell>
        <mxCell id="5xwBZp21FtiyCXYwIC1_-39" style="rounded=0;orthogonalLoop=1;jettySize=auto;html=1;exitX=0.5;exitY=0;exitDx=0;exitDy=0;entryX=0.5;entryY=1;entryDx=0;entryDy=0;endArrow=none;endFill=0;" edge="1" parent="1" source="5xwBZp21FtiyCXYwIC1_-6" target="5xwBZp21FtiyCXYwIC1_-38">
          <mxGeometry relative="1" as="geometry" />
        </mxCell>
        <mxCell id="5xwBZp21FtiyCXYwIC1_-6" value="Pedidos" style="rounded=0;whiteSpace=wrap;html=1;aspect=fixed;fontSize=14;fillColor=#e1d5e7;strokeColor=#9673a6;" vertex="1" parent="1">
          <mxGeometry x="910" y="663.5" width="100" height="50" as="geometry" />
        </mxCell>
        <mxCell id="5xwBZp21FtiyCXYwIC1_-17" value="" style="rounded=0;orthogonalLoop=1;jettySize=auto;html=1;entryX=0.5;entryY=0;entryDx=0;entryDy=0;endArrow=none;endFill=0;" edge="1" parent="1" source="5xwBZp21FtiyCXYwIC1_-15" target="AyrixzSQWaV738IrmU4d-57">
          <mxGeometry relative="1" as="geometry" />
        </mxCell>
        <mxCell id="5xwBZp21FtiyCXYwIC1_-15" value="Hace" style="rhombus;whiteSpace=wrap;html=1;fillColor=#fff2cc;strokeColor=#d6b656;fontSize=14;aspect=fixed;" vertex="1" parent="1">
          <mxGeometry x="1130" y="647.5" width="85" height="85" as="geometry" />
        </mxCell>
        <mxCell id="5xwBZp21FtiyCXYwIC1_-19" value="1:N" style="text;html=1;align=center;verticalAlign=middle;whiteSpace=wrap;rounded=0;fontSize=14;aspect=fixed;" vertex="1" parent="1">
          <mxGeometry x="417" y="667" width="60" height="30" as="geometry" />
        </mxCell>
        <mxCell id="5xwBZp21FtiyCXYwIC1_-20" value="0:1" style="text;html=1;align=center;verticalAlign=middle;whiteSpace=wrap;rounded=0;fontSize=14;aspect=fixed;" vertex="1" parent="1">
          <mxGeometry x="1155" y="799.5" width="60" height="30" as="geometry" />
        </mxCell>
        <mxCell id="5xwBZp21FtiyCXYwIC1_-21" style="edgeStyle=none;curved=1;rounded=0;orthogonalLoop=1;jettySize=auto;html=1;fontSize=12;startSize=8;endSize=8;endArrow=none;endFill=0;entryX=0;entryY=0.5;entryDx=0;entryDy=0;exitX=1;exitY=0.5;exitDx=0;exitDy=0;" edge="1" parent="1" source="5xwBZp21FtiyCXYwIC1_-22" target="5xwBZp21FtiyCXYwIC1_-27">
          <mxGeometry relative="1" as="geometry">
            <mxPoint x="-374.00000000000114" y="346.0000000000009" as="targetPoint" />
          </mxGeometry>
        </mxCell>
        <mxCell id="5xwBZp21FtiyCXYwIC1_-22" value="Vivero" style="ellipse;whiteSpace=wrap;html=1;align=center;fillColor=#e1d5e7;strokeColor=#9673a6;aspect=fixed;fontSize=14;" vertex="1" parent="1">
          <mxGeometry x="-320" y="467" width="55" height="55" as="geometry" />
        </mxCell>
        <mxCell id="5xwBZp21FtiyCXYwIC1_-23" value="Zona" style="ellipse;whiteSpace=wrap;html=1;align=center;fillColor=#e1d5e7;strokeColor=#9673a6;aspect=fixed;fontSize=14;" vertex="1" parent="1">
          <mxGeometry x="-320" y="530" width="55" height="55" as="geometry" />
        </mxCell>
        <mxCell id="5xwBZp21FtiyCXYwIC1_-24" style="edgeStyle=none;curved=1;rounded=0;orthogonalLoop=1;jettySize=auto;html=1;exitX=1;exitY=0.5;exitDx=0;exitDy=0;entryX=0;entryY=0.5;entryDx=0;entryDy=0;fontSize=12;startSize=8;endSize=8;endArrow=none;endFill=0;" edge="1" parent="1" source="5xwBZp21FtiyCXYwIC1_-25" target="5xwBZp21FtiyCXYwIC1_-27">
          <mxGeometry relative="1" as="geometry">
            <mxPoint x="-338" y="364" as="targetPoint" />
          </mxGeometry>
        </mxCell>
        <mxCell id="5xwBZp21FtiyCXYwIC1_-25" value="Fecha" style="ellipse;whiteSpace=wrap;html=1;align=center;fillColor=#e1d5e7;strokeColor=#9673a6;aspect=fixed;fontSize=14;" vertex="1" parent="1">
          <mxGeometry x="-320" y="403" width="55" height="55" as="geometry" />
        </mxCell>
        <mxCell id="5xwBZp21FtiyCXYwIC1_-26" style="edgeStyle=none;curved=1;rounded=0;orthogonalLoop=1;jettySize=auto;html=1;entryX=0;entryY=0.5;entryDx=0;entryDy=0;fontSize=12;startSize=8;endSize=8;endArrow=none;endFill=0;exitX=1;exitY=0.5;exitDx=0;exitDy=0;" edge="1" parent="1" source="5xwBZp21FtiyCXYwIC1_-23" target="5xwBZp21FtiyCXYwIC1_-27">
          <mxGeometry relative="1" as="geometry">
            <mxPoint x="-302.99" y="342.0400000000002" as="targetPoint" />
            <mxPoint x="-163" y="438" as="sourcePoint" />
          </mxGeometry>
        </mxCell>
        <mxCell id="5xwBZp21FtiyCXYwIC1_-27" value="Historial" style="ellipse;shape=doubleEllipse;margin=3;whiteSpace=wrap;html=1;align=center;aspect=fixed;fillColor=#e1d5e7;strokeColor=#9673a6;fontSize=14;" vertex="1" parent="1">
          <mxGeometry x="-233" y="454.5" width="80" height="80" as="geometry" />
        </mxCell>
        <mxCell id="5xwBZp21FtiyCXYwIC1_-37" style="edgeStyle=orthogonalEdgeStyle;rounded=0;orthogonalLoop=1;jettySize=auto;html=1;exitX=0.5;exitY=1;exitDx=0;exitDy=0;entryX=0.5;entryY=1;entryDx=0;entryDy=0;endArrow=none;endFill=0;" edge="1" parent="1" source="5xwBZp21FtiyCXYwIC1_-35" target="5xwBZp21FtiyCXYwIC1_-6">
          <mxGeometry relative="1" as="geometry">
            <Array as="points">
              <mxPoint x="-76" y="870" />
              <mxPoint x="1191" y="870" />
            </Array>
          </mxGeometry>
        </mxCell>
        <mxCell id="5xwBZp21FtiyCXYwIC1_-35" value="Gestiona" style="rhombus;whiteSpace=wrap;html=1;fillColor=#fff2cc;strokeColor=#d6b656;fontSize=14;aspect=fixed;" vertex="1" parent="1">
          <mxGeometry x="-117" y="640" width="85" height="85" as="geometry" />
        </mxCell>
        <mxCell id="5xwBZp21FtiyCXYwIC1_-38" value="&lt;font style=&quot;font-size: 14px;&quot;&gt;Código&lt;/font&gt;" style="ellipse;whiteSpace=wrap;html=1;align=center;fillColor=#0050ef;strokeColor=#001DBC;fontColor=#ffffff;aspect=fixed;fontSize=14;" vertex="1" parent="1">
          <mxGeometry x="1006" y="578" width="50" height="50" as="geometry" />
        </mxCell>
        <mxCell id="5xwBZp21FtiyCXYwIC1_-42" value="" style="rounded=0;orthogonalLoop=1;jettySize=auto;html=1;entryX=0.5;entryY=0;entryDx=0;entryDy=0;endArrow=none;endFill=0;" edge="1" parent="1" source="5xwBZp21FtiyCXYwIC1_-40">
          <mxGeometry relative="1" as="geometry">
            <mxPoint x="385" y="469.5" as="targetPoint" />
          </mxGeometry>
        </mxCell>
        <mxCell id="5xwBZp21FtiyCXYwIC1_-40" value="Nombre" style="ellipse;whiteSpace=wrap;html=1;align=center;fillColor=#e1d5e7;strokeColor=#9673a6;aspect=fixed;fontSize=14;" vertex="1" parent="1">
          <mxGeometry x="335" y="299.5" width="60" height="60" as="geometry" />
        </mxCell>
        <mxCell id="5xwBZp21FtiyCXYwIC1_-41" value="0:N" style="text;html=1;align=center;verticalAlign=middle;whiteSpace=wrap;rounded=0;fontSize=14;aspect=fixed;" vertex="1" parent="1">
          <mxGeometry x="919" y="707" width="60" height="30" as="geometry" />
        </mxCell>
        <mxCell id="5xwBZp21FtiyCXYwIC1_-44" style="rounded=0;orthogonalLoop=1;jettySize=auto;html=1;exitX=0.5;exitY=1;exitDx=0;exitDy=0;entryX=1;entryY=0.5;entryDx=0;entryDy=0;endArrow=none;endFill=0;" edge="1" parent="1" source="5xwBZp21FtiyCXYwIC1_-43" target="AyrixzSQWaV738IrmU4d-11">
          <mxGeometry relative="1" as="geometry" />
        </mxCell>
        <mxCell id="5xwBZp21FtiyCXYwIC1_-43" value="Nombre" style="ellipse;whiteSpace=wrap;html=1;align=center;fillColor=#e1d5e7;strokeColor=#9673a6;aspect=fixed;fontSize=14;" vertex="1" parent="1">
          <mxGeometry x="880" y="302" width="60" height="60" as="geometry" />
        </mxCell>
        <mxCell id="5xwBZp21FtiyCXYwIC1_-45" value="Es hecho por" style="text;html=1;align=center;verticalAlign=middle;whiteSpace=wrap;rounded=0;fontSize=14;aspect=fixed;" vertex="1" parent="1">
          <mxGeometry x="1163" y="744.5" width="110" height="55" as="geometry" />
        </mxCell>
        <mxCell id="5xwBZp21FtiyCXYwIC1_-46" value="Hace" style="text;html=1;align=center;verticalAlign=middle;whiteSpace=wrap;rounded=0;fontSize=14;aspect=fixed;" vertex="1" parent="1">
          <mxGeometry x="1045" y="649.5" width="110" height="55" as="geometry" />
        </mxCell>
        <mxCell id="5xwBZp21FtiyCXYwIC1_-49" style="rounded=0;orthogonalLoop=1;jettySize=auto;html=1;exitX=0.5;exitY=1;exitDx=0;exitDy=0;entryX=0.5;entryY=0;entryDx=0;entryDy=0;endArrow=none;endFill=0;" edge="1" parent="1" source="5xwBZp21FtiyCXYwIC1_-48" target="AyrixzSQWaV738IrmU4d-65">
          <mxGeometry relative="1" as="geometry" />
        </mxCell>
        <mxCell id="5xwBZp21FtiyCXYwIC1_-48" value="&lt;font style=&quot;font-size: 14px;&quot;&gt;Cantidad&lt;/font&gt;" style="ellipse;whiteSpace=wrap;html=1;align=center;fillColor=#e1d5e7;strokeColor=#9673a6;aspect=fixed;fontSize=14;" vertex="1" parent="1">
          <mxGeometry x="678" y="561.5" width="60" height="60" as="geometry" />
        </mxCell>
        <mxCell id="WhL2kZLVGy2SMYVbGXkR-1" value="Zona" style="shape=process;whiteSpace=wrap;html=1;backgroundOutline=1;fillColor=#e1d5e7;strokeColor=#9673a6;fontSize=14;aspect=fixed;" vertex="1" parent="1">
          <mxGeometry x="334.5" y="469.5" width="100" height="50" as="geometry" />
        </mxCell>
        <mxCell id="jsnghoFvd-D4XpScMKx1-2" style="rounded=0;orthogonalLoop=1;jettySize=auto;html=1;exitX=0.5;exitY=0;exitDx=0;exitDy=0;entryX=0.5;entryY=1;entryDx=0;entryDy=0;endArrow=none;endFill=0;" edge="1" parent="1" source="jsnghoFvd-D4XpScMKx1-1" target="AyrixzSQWaV738IrmU4d-12">
          <mxGeometry relative="1" as="geometry" />
        </mxCell>
        <mxCell id="jsnghoFvd-D4XpScMKx1-1" value="Costo Producción" style="ellipse;whiteSpace=wrap;html=1;align=center;fillColor=#e1d5e7;strokeColor=#9673a6;aspect=fixed;fontSize=14;" vertex="1" parent="1">
          <mxGeometry x="514.5" y="755" width="80" height="80" as="geometry" />
        </mxCell>
      </root>
    </mxGraphModel>
  </diagram>
</mxfile>
